<svg xmlns="http://www.w3.org/2000/svg" viewBox="0 0 40 40"><path fill="#fd8d00" d="M13.213 11.916s.249 2.217-1.206 3.906c-.903 1.047-.694 2.852.323 3.678h6.949v-7.981l-6.066.397Zm12.132 0s-.249 2.217 1.206 3.906c.903 1.047.694 2.852-.323 3.678H19.28v-7.981l6.066.397Z"/><path fill="#472ec3" d="M27.294 23.58c.618-2.408-.448-4.055-2.06-5.027 0 0-.738-2.41-3.432-2.797l-1.308-.077a1.206 1.206 0 0 1-2.413-.059v-.087c-.804-.052-4.77-.031-7.435 5.09A80.642 80.642 0 0 0 6.89 29.02a2.88 2.88 0 0 0 1.222 3.502l8.928 3.664.4 1.183c.143.424.54.71.99.71h10.767a8.788 8.788 0 0 0 2.829-2.738c3.343-5.182-.466-10.558-4.731-11.762Zm-13.638 5.728a1.397 1.397 0 0 1-.614-1.926l1.252-2.292 1.266 5.146-1.904-.928Z"/><path fill="#fdc64e" d="M30.778 26.536a12.895 12.895 0 0 1-2.983-1.475 1.093 1.093 0 0 1-.39-1.392l.019-.04a1.877 1.877 0 0 1 2.514-.85l1.353.668c.93.46 1.31 1.586.85 2.515l-.019.04a1.093 1.093 0 0 1-1.344.534ZM18.1 31.867l-.68 3.943a.308.308 0 0 0 .2.343l3.873 1.366c.917.262 1.905.04 2.621-.59l.384-.339c.355-.311.575-.747.617-1.217l.02-.224a1.428 1.428 0 0 0-1.012-1.493l-1.764-.53a.481.481 0 0 1-.342-.483 1.144 1.144 0 0 0-1.033-1.19l-2.6.16a.308.308 0 0 0-.284.254Z"/><path fill="none" d="M40 40H0V0h40z"/><path fill="#fdc64e" d="M25.64 8.569c-.148-.026-.31.166-.5.274a.69.69 0 0 1-.217.059c-2.98.197-7.494-3.428-7.494-3.428L13.866 9.46c-.075.084-.207.062-.261-.036-.359-.651-.726-.726-.87-.728-.52.385-.855.974-.855 1.643 0 1.16 1 2.11 2.24 2.12a5.635 5.635 0 0 0 3.97 3.23c.03.64.55 1.14 1.2 1.14.65 0 1.16-.5 1.2-1.14a5.63 5.63 0 0 0 3.95-3.23c1.24-.01 2.24-.95 2.24-2.12 0-.752-.416-1.4-1.04-1.771Z"/><path fill="#fd8d00" d="M13.605 9.425c.054.098.186.12.26.036l3.564-3.987s4.515 3.625 7.494 3.428a.69.69 0 0 0 .216-.06c.192-.107.353-.299.501-.273.006 0 .012-.003.017-.001.06-4.043-3.575-7.31-7.745-6.53-2.604.488-4.689 2.596-5.146 5.205-.082.47-.114.934-.1 1.386.002.036.03.068.067.068h.001c.145.002.512.077.87.728Z"/><ellipse cx="17.698" cy="9.912" rx=".6" ry=".72"/><ellipse cx="20.866" cy="9.912" rx=".6" ry=".72"/><path fill="#5c2f17" d="M20.028 12.75c.135 0 .231.13.195.26a.976.976 0 0 1-1.882 0 .204.204 0 0 1 .195-.26h1.492Z"/></svg>